<svg width="749" height="944" viewBox="0 0 749 944" fill="none" xmlns="http://www.w3.org/2000/svg">
<g opacity="0.2" clip-path="url(#clip0_52_987)">
<path d="M441.375 821.993L441.375 426.038L343.292 327.049L343.292 -68.9062" stroke="url(#paint0_linear_52_987)" stroke-width="4.17"/>
<path d="M441.375 846.741C447.878 846.741 454.115 844.133 458.714 839.492C463.312 834.851 465.896 828.557 465.896 821.994C465.896 815.43 463.312 809.136 458.714 804.495C454.115 799.854 447.878 797.246 441.375 797.246C434.872 797.246 428.635 799.854 424.036 804.495C419.438 809.136 416.854 815.43 416.854 821.994C416.854 828.557 419.438 834.851 424.036 839.492C428.635 844.133 434.872 846.741 441.375 846.741ZM343.292 -44.1586C349.795 -44.1586 356.032 -46.7659 360.631 -51.4069C365.229 -56.0479 367.813 -62.3425 367.813 -68.9059C367.813 -75.4692 365.229 -81.7639 360.631 -86.4048C356.032 -91.0458 349.795 -93.6531 343.292 -93.6531C336.788 -93.6531 330.551 -91.0458 325.953 -86.4048C321.354 -81.7639 318.771 -75.4692 318.771 -68.9059C318.771 -62.3425 321.354 -56.0479 325.953 -51.4069C330.551 -46.7659 336.788 -44.1586 343.292 -44.1586Z" fill="url(#paint1_linear_52_987)"/>
<path d="M147.125 426.038L343.292 426.038" stroke="url(#paint2_linear_52_987)" stroke-width="4.17"/>
<path d="M147.125 450.785C153.628 450.785 159.865 448.178 164.464 443.537C169.062 438.896 171.646 432.601 171.646 426.038C171.646 419.475 169.062 413.18 164.464 408.539C159.865 403.898 153.628 401.291 147.125 401.291C140.622 401.291 134.385 403.898 129.786 408.539C125.188 413.18 122.604 419.475 122.604 426.038C122.604 432.601 125.188 438.896 129.786 443.537C134.385 448.178 140.622 450.785 147.125 450.785ZM343.292 450.785C349.795 450.785 356.032 448.178 360.631 443.537C365.229 438.896 367.813 432.601 367.813 426.038C367.813 419.475 365.229 413.18 360.631 408.539C356.032 403.898 349.795 401.291 343.292 401.291C336.788 401.291 330.551 403.898 325.953 408.539C321.354 413.18 318.771 419.475 318.771 426.038C318.771 432.601 321.354 438.896 325.953 443.537C330.551 448.178 336.788 450.785 343.292 450.785Z" fill="url(#paint3_linear_52_987)"/>
<path d="M539.458 525.027L539.458 821.993L245.208 1118.96L49.0417 1118.96" stroke="url(#paint4_linear_52_987)" stroke-width="4.17"/>
<path d="M539.458 549.774C545.962 549.774 552.199 547.167 556.797 542.526C561.396 537.885 563.979 531.59 563.979 525.027C563.979 518.463 561.396 512.169 556.797 507.528C552.199 502.887 545.962 500.28 539.458 500.28C532.955 500.28 526.718 502.887 522.12 507.528C517.521 512.169 514.938 518.463 514.938 525.027C514.938 531.59 517.521 537.885 522.12 542.526C526.718 547.167 532.955 549.774 539.458 549.774ZM49.0417 1143.71C55.5451 1143.71 61.782 1141.1 66.3806 1136.46C70.9791 1131.82 73.5626 1125.52 73.5626 1118.96C73.5626 1112.4 70.9791 1106.1 66.3806 1101.46C61.782 1096.82 55.5451 1094.21 49.0417 1094.21C42.5384 1094.21 36.3014 1096.82 31.7029 1101.46C27.1043 1106.1 24.5209 1112.4 24.5209 1118.96C24.5209 1125.52 27.1043 1131.82 31.7029 1136.46C36.3014 1141.1 42.5384 1143.71 49.0417 1143.71Z" fill="url(#paint5_linear_52_987)"/>
<path d="M637.542 129.071L637.542 327.049L539.458 426.038" stroke="url(#paint6_linear_52_987)" stroke-width="4.17"/>
<path d="M637.542 153.819C644.045 153.819 650.282 151.211 654.881 146.57C659.479 141.929 662.063 135.635 662.063 129.071C662.063 122.508 659.479 116.213 654.881 111.573C650.282 106.932 644.045 104.324 637.542 104.324C631.038 104.324 624.801 106.932 620.203 111.573C615.604 116.213 613.021 122.508 613.021 129.071C613.021 135.635 615.604 141.929 620.203 146.57C624.801 151.211 631.038 153.819 637.542 153.819ZM539.458 450.785C545.962 450.785 552.199 448.178 556.797 443.537C561.396 438.896 563.979 432.601 563.979 426.038C563.979 419.475 561.396 413.18 556.797 408.539C552.199 403.898 545.962 401.291 539.458 401.291C532.955 401.291 526.718 403.898 522.12 408.539C517.521 413.18 514.938 419.475 514.938 426.038C514.938 432.601 517.521 438.896 522.12 443.537C526.718 448.178 532.955 450.785 539.458 450.785Z" fill="url(#paint7_linear_52_987)"/>
<path d="M49.0417 -68.9065L245.208 129.071L245.208 228.06L147.125 327.049L49.0417 327.049" stroke="url(#paint8_linear_52_987)" stroke-width="4.17"/>
<path d="M49.0417 -44.1584C55.545 -44.1584 61.782 -46.7656 66.3805 -51.4066C70.9791 -56.0476 73.5625 -62.3422 73.5625 -68.9056C73.5625 -75.4689 70.9791 -81.7636 66.3805 -86.4046C61.782 -91.0456 55.545 -93.6528 49.0417 -93.6528C42.5383 -93.6528 36.3014 -91.0456 31.7028 -86.4046C27.1043 -81.7635 24.5208 -75.4689 24.5208 -68.9056C24.5208 -62.3422 27.1043 -56.0476 31.7028 -51.4066C36.3014 -46.7656 42.5383 -44.1584 49.0417 -44.1584ZM49.0417 351.797C55.545 351.797 61.782 349.19 66.3805 344.549C70.9791 339.908 73.5625 333.613 73.5625 327.05C73.5625 320.486 70.9791 314.192 66.3805 309.551C61.782 304.91 55.545 302.302 49.0417 302.302C42.5384 302.302 36.3014 304.91 31.7028 309.551C27.1043 314.192 24.5209 320.486 24.5209 327.05C24.5209 333.613 27.1043 339.908 31.7028 344.549C36.3014 349.19 42.5384 351.797 49.0417 351.797Z" fill="url(#paint9_linear_52_987)"/>
<path d="M343.292 723.005L245.208 723.005L147.125 821.994L147.125 1019.97" stroke="url(#paint10_linear_52_987)" stroke-width="4.17"/>
<path d="M343.292 747.751C349.795 747.751 356.032 745.144 360.631 740.503C365.229 735.862 367.813 729.567 367.813 723.004C367.813 716.441 365.229 710.146 360.631 705.505C356.032 700.864 349.795 698.257 343.292 698.257C336.788 698.257 330.551 700.864 325.953 705.505C321.354 710.146 318.771 716.441 318.771 723.004C318.771 729.567 321.354 735.862 325.953 740.503C330.551 745.144 336.788 747.751 343.292 747.751ZM147.125 1044.72C153.628 1044.72 159.865 1042.11 164.464 1037.47C169.062 1032.83 171.646 1026.53 171.646 1019.97C171.646 1013.41 169.062 1007.11 164.464 1002.47C159.865 997.831 153.628 995.223 147.125 995.223C140.622 995.223 134.385 997.831 129.786 1002.47C125.188 1007.11 122.604 1013.41 122.604 1019.97C122.604 1026.53 125.188 1032.83 129.786 1037.47C134.385 1042.11 140.622 1044.72 147.125 1044.72Z" fill="url(#paint11_linear_52_987)"/>
<path d="M245.208 821.994L245.208 1019.97" stroke="url(#paint12_linear_52_987)" stroke-width="4.17"/>
<path d="M245.208 846.74C251.712 846.74 257.949 844.133 262.547 839.492C267.146 834.851 269.729 828.556 269.729 821.993C269.729 815.43 267.146 809.135 262.547 804.494C257.949 799.853 251.712 797.246 245.208 797.246C238.705 797.246 232.468 799.853 227.87 804.494C223.271 809.135 220.688 815.43 220.688 821.993C220.688 828.556 223.271 834.851 227.87 839.492C232.468 844.133 238.705 846.74 245.208 846.74ZM245.208 1044.72C251.712 1044.72 257.949 1042.11 262.547 1037.47C267.146 1032.83 269.729 1026.53 269.729 1019.97C269.729 1013.41 267.146 1007.11 262.547 1002.47C257.949 997.831 251.712 995.223 245.208 995.223C238.705 995.223 232.468 997.831 227.87 1002.47C223.271 1007.11 220.688 1013.41 220.688 1019.97C220.688 1026.53 223.271 1032.83 227.87 1037.47C232.468 1042.11 238.705 1044.72 245.208 1044.72Z" fill="url(#paint13_linear_52_987)"/>
<path d="M539.458 129.071L539.458 327.049" stroke="url(#paint14_linear_52_987)" stroke-width="4.17"/>
<path d="M539.458 153.819C545.962 153.819 552.199 151.212 556.797 146.571C561.396 141.93 563.979 135.635 563.979 129.072C563.979 122.509 561.396 116.214 556.797 111.573C552.199 106.932 545.962 104.325 539.458 104.325C532.955 104.325 526.718 106.932 522.12 111.573C517.521 116.214 514.938 122.509 514.938 129.072C514.938 135.635 517.521 141.93 522.12 146.571C526.718 151.212 532.955 153.819 539.458 153.819ZM539.458 351.797C545.962 351.797 552.199 349.19 556.797 344.549C561.396 339.908 563.979 333.613 563.979 327.05C563.979 320.486 561.396 314.192 556.797 309.551C552.199 304.91 545.962 302.302 539.458 302.302C532.955 302.302 526.718 304.91 522.12 309.551C517.521 314.192 514.938 320.486 514.938 327.05C514.938 333.613 517.521 339.908 522.12 344.549C526.718 349.19 532.955 351.797 539.458 351.797Z" fill="url(#paint15_linear_52_987)"/>
<path d="M441.375 54.8291C447.878 54.8291 454.115 52.2219 458.714 47.5809C463.312 42.9399 465.896 36.6453 465.896 30.0819C465.896 23.5185 463.312 17.2239 458.714 12.5829C454.115 7.94191 447.878 5.33468 441.375 5.33469C434.872 5.33469 428.635 7.94191 424.036 12.5829C419.438 17.2239 416.854 23.5185 416.854 30.0819C416.854 36.6453 419.438 42.9399 424.036 47.5809C428.635 52.2219 434.872 54.8291 441.375 54.8291ZM637.542 54.8291C644.045 54.8291 650.282 52.2219 654.881 47.5809C659.479 42.9399 662.063 36.6453 662.063 30.0819C662.063 23.5185 659.479 17.2239 654.881 12.5829C650.282 7.9419 644.045 5.33468 637.542 5.33468C631.038 5.33468 624.801 7.9419 620.203 12.5829C615.604 17.2239 613.021 23.5185 613.021 30.0819C613.021 36.6453 615.604 42.9399 620.203 47.5809C624.801 52.2219 631.038 54.8291 637.542 54.8291Z" fill="url(#paint16_linear_52_987)"/>
<path d="M343.292 624.016L245.208 525.027L147.125 525.027" stroke="url(#paint17_linear_52_987)" stroke-width="4.17"/>
<path d="M343.292 648.763C349.795 648.763 356.032 646.155 360.631 641.514C365.229 636.873 367.813 630.579 367.813 624.015C367.813 617.452 365.229 611.158 360.631 606.516C356.032 601.875 349.795 599.268 343.292 599.268C336.788 599.268 330.551 601.875 325.953 606.517C321.354 611.158 318.771 617.452 318.771 624.015C318.771 630.579 321.354 636.873 325.953 641.514C330.551 646.155 336.788 648.763 343.292 648.763ZM147.125 549.774C153.628 549.774 159.865 547.167 164.464 542.526C169.062 537.885 171.646 531.59 171.646 525.027C171.646 518.463 169.062 512.169 164.464 507.528C159.865 502.887 153.628 500.279 147.125 500.279C140.622 500.279 134.385 502.887 129.786 507.528C125.188 512.169 122.604 518.463 122.604 525.027C122.604 531.59 125.188 537.885 129.786 542.526C134.385 547.167 140.622 549.774 147.125 549.774Z" fill="url(#paint18_linear_52_987)"/>
<path d="M637.542 747.752C644.045 747.752 650.282 745.145 654.881 740.504C659.479 735.863 662.063 729.568 662.063 723.005C662.063 716.441 659.479 710.147 654.881 705.506C650.282 700.865 644.045 698.258 637.542 698.258C631.038 698.258 624.801 700.865 620.203 705.506C615.604 710.147 613.021 716.441 613.021 723.005C613.021 729.568 615.604 735.863 620.203 740.504C624.801 745.145 631.038 747.752 637.542 747.752ZM637.542 549.774C644.045 549.774 650.282 547.167 654.881 542.526C659.479 537.885 662.063 531.59 662.063 525.027C662.063 518.464 659.479 512.169 654.881 507.528C650.282 502.887 644.045 500.28 637.542 500.28C631.038 500.28 624.801 502.887 620.203 507.528C615.604 512.169 613.021 518.464 613.021 525.027C613.021 531.59 615.604 537.885 620.203 542.526C624.801 547.167 631.038 549.774 637.542 549.774Z" fill="url(#paint19_linear_52_987)"/>
</g>
<defs>
<linearGradient id="paint0_linear_52_987" x1="441.375" y1="821.993" x2="190.64" y2="776.731" gradientUnits="userSpaceOnUse">
<stop stop-color="#605BFF"/>
<stop offset="1" stop-color="#9F5BFF"/>
</linearGradient>
<linearGradient id="paint1_linear_52_987" x1="465.896" y1="846.741" x2="101.515" y2="753.268" gradientUnits="userSpaceOnUse">
<stop stop-color="#605BFF"/>
<stop offset="1" stop-color="#9F5BFF"/>
</linearGradient>
<linearGradient id="paint2_linear_52_987" x1="343.292" y1="426.038" x2="343.287" y2="424.428" gradientUnits="userSpaceOnUse">
<stop stop-color="#605BFF"/>
<stop offset="1" stop-color="#9F5BFF"/>
</linearGradient>
<linearGradient id="paint3_linear_52_987" x1="367.813" y1="450.785" x2="358.15" y2="372.294" gradientUnits="userSpaceOnUse">
<stop stop-color="#605BFF"/>
<stop offset="1" stop-color="#9F5BFF"/>
</linearGradient>
<linearGradient id="paint4_linear_52_987" x1="539.458" y1="1118.96" x2="82.5091" y2="500.307" gradientUnits="userSpaceOnUse">
<stop stop-color="#605BFF"/>
<stop offset="1" stop-color="#9F5BFF"/>
</linearGradient>
<linearGradient id="paint5_linear_52_987" x1="563.979" y1="1143.71" x2="71.2203" y2="466.309" gradientUnits="userSpaceOnUse">
<stop stop-color="#605BFF"/>
<stop offset="1" stop-color="#9F5BFF"/>
</linearGradient>
<linearGradient id="paint6_linear_52_987" x1="637.542" y1="426.038" x2="437.348" y2="317.623" gradientUnits="userSpaceOnUse">
<stop stop-color="#605BFF"/>
<stop offset="1" stop-color="#9F5BFF"/>
</linearGradient>
<linearGradient id="paint7_linear_52_987" x1="662.063" y1="450.785" x2="400.507" y2="268.67" gradientUnits="userSpaceOnUse">
<stop stop-color="#605BFF"/>
<stop offset="1" stop-color="#9F5BFF"/>
</linearGradient>
<linearGradient id="paint8_linear_52_987" x1="245.208" y1="327.049" x2="-66.7501" y2="73.6371" gradientUnits="userSpaceOnUse">
<stop stop-color="#605BFF"/>
<stop offset="1" stop-color="#9F5BFF"/>
</linearGradient>
<linearGradient id="paint9_linear_52_987" x1="73.5625" y1="351.797" x2="-51.805" y2="329.166" gradientUnits="userSpaceOnUse">
<stop stop-color="#605BFF"/>
<stop offset="1" stop-color="#9F5BFF"/>
</linearGradient>
<linearGradient id="paint10_linear_52_987" x1="343.292" y1="1019.97" x2="105.01" y2="761.888" gradientUnits="userSpaceOnUse">
<stop stop-color="#605BFF"/>
<stop offset="1" stop-color="#9F5BFF"/>
</linearGradient>
<linearGradient id="paint11_linear_52_987" x1="367.813" y1="1044.72" x2="91.9912" y2="724.637" gradientUnits="userSpaceOnUse">
<stop stop-color="#605BFF"/>
<stop offset="1" stop-color="#9F5BFF"/>
</linearGradient>
<linearGradient id="paint12_linear_52_987" x1="246.208" y1="1019.97" x2="243.569" y2="1019.95" gradientUnits="userSpaceOnUse">
<stop stop-color="#605BFF"/>
<stop offset="1" stop-color="#9F5BFF"/>
</linearGradient>
<linearGradient id="paint13_linear_52_987" x1="269.729" y1="1044.72" x2="152.639" y2="1006.67" gradientUnits="userSpaceOnUse">
<stop stop-color="#605BFF"/>
<stop offset="1" stop-color="#9F5BFF"/>
</linearGradient>
<linearGradient id="paint14_linear_52_987" x1="540.458" y1="327.049" x2="537.819" y2="327.027" gradientUnits="userSpaceOnUse">
<stop stop-color="#605BFF"/>
<stop offset="1" stop-color="#9F5BFF"/>
</linearGradient>
<linearGradient id="paint15_linear_52_987" x1="563.979" y1="351.797" x2="446.889" y2="313.751" gradientUnits="userSpaceOnUse">
<stop stop-color="#605BFF"/>
<stop offset="1" stop-color="#9F5BFF"/>
</linearGradient>
<linearGradient id="paint16_linear_52_987" x1="662.063" y1="54.8291" x2="652.4" y2="-23.6618" gradientUnits="userSpaceOnUse">
<stop stop-color="#605BFF"/>
<stop offset="1" stop-color="#9F5BFF"/>
</linearGradient>
<linearGradient id="paint17_linear_52_987" x1="343.292" y1="624.016" x2="298.49" y2="478.443" gradientUnits="userSpaceOnUse">
<stop stop-color="#605BFF"/>
<stop offset="1" stop-color="#9F5BFF"/>
</linearGradient>
<linearGradient id="paint18_linear_52_987" x1="367.813" y1="648.763" x2="290.128" y2="438.411" gradientUnits="userSpaceOnUse">
<stop stop-color="#605BFF"/>
<stop offset="1" stop-color="#9F5BFF"/>
</linearGradient>
<linearGradient id="paint19_linear_52_987" x1="662.063" y1="747.752" x2="544.972" y2="709.706" gradientUnits="userSpaceOnUse">
<stop stop-color="#605BFF"/>
<stop offset="1" stop-color="#9F5BFF"/>
</linearGradient>
<clipPath id="clip0_52_987">
<rect width="1242" height="749" fill="white" transform="translate(0 1143) rotate(-90)"/>
</clipPath>
</defs>
</svg>
